<svg xmlns="http://www.w3.org/2000/svg" xmlns:xlink="http://www.w3.org/1999/xlink" viewBox="0 0 902.237 512.031">
  <defs>
    <style>
      .cls-1, .cls-6, .cls-7 {
        fill: none;
      }

      .cls-2 {
        clip-path: url(#clip-path);
      }

      .cls-3 {
        fill: #fff;
      }

      .cls-4, .cls-5 {
        fill: #ebff84;
        font-family: SquareGrotesk-Regular, Square Grotesk;
      }

      .cls-4 {
        font-size: 24px;
      }

      .cls-5 {
        font-size: 26px;
      }

      .cls-6 {
        stroke: #fff;
        stroke-width: 5px;
      }

      .cls-7 {
        stroke: #ebff84;
        stroke-width: 3px;
      }

      .cls-8 {
        stroke: none;
      }
    </style>
    <clipPath id="clip-path">
      <path id="Path_2" data-name="Path 2" class="cls-1" d="M0-78.263H55.442v24.614H0Z" transform="translate(0 78.263)"/>
    </clipPath>
  </defs>
  <g id="Group_517" data-name="Group 517" transform="translate(-188.719 -142.969)">
    <g id="Group_3" data-name="Group 3" transform="translate(592.421 684.35)">
      <g id="Group_2" data-name="Group 2" class="cls-2" transform="translate(0 -78.263)">
        <g id="Group_1" data-name="Group 1" transform="translate(0)">
          <path id="Path_1" data-name="Path 1" class="cls-3" d="M-74.5-31.1a6.26,6.26,0,0,1-1.771,3.74,4.824,4.824,0,0,1-3.56,1.512,3.984,3.984,0,0,1-2.348-.7A3.752,3.752,0,0,1-83.6-28.434a5.675,5.675,0,0,1-.218-2.665,6.373,6.373,0,0,1,1.75-3.781,4.768,4.768,0,0,1,3.543-1.512,3.708,3.708,0,0,1,3.163,1.533A5.028,5.028,0,0,1-74.5-31.1m19.366,5.249a2.067,2.067,0,0,1-1.562.588l-7.582-.008,9.813-9.5.448-3.615H-71.678a8.212,8.212,0,0,0-6.208-2.392,10.723,10.723,0,0,0-7.373,2.813,10.818,10.818,0,0,0-3.625,6.945,8.861,8.861,0,0,0,.65,4.979,1.719,1.719,0,0,1-.34.782,1.963,1.963,0,0,1-1.5.575,1.321,1.321,0,0,1-1.135-.5,2.059,2.059,0,0,1-.272-1.454l1.535-12.692h.031l.544-4.315H-89.4l.159-1.406h-3.9a16.339,16.339,0,0,0-3.106-.32,9.869,9.869,0,0,0-6.234,1.982,7.438,7.438,0,0,0-2.94,5.178l-.16.842h-2.374l-.727,3.793H-106l-1.534,12.5h4.635l1.534-12.5h3.15l.417-3.793h-3.151l.127-.554a3.749,3.749,0,0,1,1.487-2.653,5.131,5.131,0,0,1,3.214-.991,7.048,7.048,0,0,1,1.793.224l-1.821,14.674a5.343,5.343,0,0,0,1.07,4.331q1.391,1.58,4.556,1.582a5.834,5.834,0,0,0,3.772-1.182,4.352,4.352,0,0,0,.986-1.073,8.606,8.606,0,0,0,5.332,1.59A10.544,10.544,0,0,0-73.1-24.233a10.988,10.988,0,0,0,3.664-6.951,10.105,10.105,0,0,0-.083-3.107h8.676l-9.812,9.434-.448,3.684,13.943.007a6.083,6.083,0,0,0,3.914-1.229Z" transform="translate(108.686 45.368)"/>
        </g>
      </g>
    </g>
    <text id="APP" class="cls-4" transform="matrix(0.899, -0.438, 0.438, 0.899, 226.953, 349.784)"><tspan x="0" y="0">APP</tspan></text>
    <text id="TAP" class="cls-5" transform="matrix(0.719, 0.695, -0.695, 0.719, 780.001, 187.032)"><tspan x="0" y="0">TAP</tspan></text>
    <text id="Let_s_drink" data-name="Let’s drink" class="cls-5" transform="matrix(0.839, 0.545, -0.545, 0.839, 954.206, 327.241)"><tspan x="0" y="0">Let’s drink</tspan></text>
    <g id="Group_4" data-name="Group 4" transform="translate(-250 89)">
      <g id="Rectangle_1" data-name="Rectangle 1" class="cls-6" transform="translate(499 307)">
        <rect class="cls-8" width="143" height="259" rx="17"/>
        <rect class="cls-1" x="2.5" y="2.5" width="138" height="254" rx="14.5"/>
      </g>
      <line id="Line_1" data-name="Line 1" class="cls-6" x2="141" transform="translate(499.5 341.5)"/>
      <line id="Line_2" data-name="Line 2" class="cls-6" x2="141" transform="translate(499.5 511.5)"/>
      <g id="Ellipse_1" data-name="Ellipse 1" class="cls-6" transform="translate(558 522)">
        <circle class="cls-8" cx="12.5" cy="12.5" r="12.5"/>
        <circle class="cls-1" cx="12.5" cy="12.5" r="10"/>
      </g>
    </g>
    <g id="qr-code" transform="translate(586.405 372.405)">
      <g id="Group_6" data-name="Group 6">
        <g id="Group_5" data-name="Group 5">
          <path id="Path_3" data-name="Path 3" class="cls-3" d="M22.872,0H1.525A1.525,1.525,0,0,0,0,1.525V22.872A1.525,1.525,0,0,0,1.525,24.4H22.872A1.525,1.525,0,0,0,24.4,22.872V1.525A1.525,1.525,0,0,0,22.872,0ZM21.348,21.348H3.05V3.05h18.3Z"/>
        </g>
      </g>
      <g id="Group_8" data-name="Group 8" transform="translate(48.794)">
        <g id="Group_7" data-name="Group 7">
          <path id="Path_4" data-name="Path 4" class="cls-3" d="M364.205,0H342.858a1.525,1.525,0,0,0-1.525,1.525V22.872a1.525,1.525,0,0,0,1.525,1.525h21.347a1.525,1.525,0,0,0,1.525-1.525V1.525A1.525,1.525,0,0,0,364.205,0Zm-1.525,21.348h-18.3V3.05h18.3Z" transform="translate(-341.333)"/>
        </g>
      </g>
      <g id="Group_10" data-name="Group 10" transform="translate(0 48.794)">
        <g id="Group_9" data-name="Group 9">
          <path id="Path_5" data-name="Path 5" class="cls-3" d="M22.872,341.333H1.525A1.525,1.525,0,0,0,0,342.858v21.347a1.525,1.525,0,0,0,1.525,1.525H22.872a1.525,1.525,0,0,0,1.525-1.525V342.858A1.525,1.525,0,0,0,22.872,341.333Zm-1.525,21.348H3.05v-18.3h18.3Z" transform="translate(0 -341.333)"/>
        </g>
      </g>
      <g id="Group_12" data-name="Group 12" transform="translate(1.525 27.447)">
        <g id="Group_11" data-name="Group 11">
          <path id="Path_6" data-name="Path 6" class="cls-3" d="M32.014,192H12.191a1.525,1.525,0,1,0,0,3.05h18.3v1.525a1.525,1.525,0,1,0,3.05,0v-3.05A1.525,1.525,0,0,0,32.014,192Z" transform="translate(-10.666 -192)"/>
        </g>
      </g>
      <g id="Group_14" data-name="Group 14" transform="translate(0 39.645)">
        <g id="Group_13" data-name="Group 13">
          <path id="Path_7" data-name="Path 7" class="cls-3" d="M21.348,280.383H3.05v-1.525a1.525,1.525,0,1,0-3.05,0v3.05a1.525,1.525,0,0,0,1.525,1.525H21.348a1.525,1.525,0,1,0,0-3.05Z" transform="translate(0 -277.333)"/>
        </g>
      </g>
      <g id="Group_16" data-name="Group 16" transform="translate(64.043 48.794)">
        <g id="Group_15" data-name="Group 15">
          <path id="Path_8" data-name="Path 8" class="cls-3" d="M455.623,341.333a1.525,1.525,0,0,0-1.525,1.525v19.823h-4.574a1.525,1.525,0,1,0,0,3.05h6.1a1.525,1.525,0,0,0,1.525-1.525V342.858A1.525,1.525,0,0,0,455.623,341.333Z" transform="translate(-447.999 -341.333)"/>
        </g>
      </g>
      <g id="Group_18" data-name="Group 18" transform="translate(27.447 48.794)">
        <g id="Group_17" data-name="Group 17">
          <path id="Path_9" data-name="Path 9" class="cls-3" d="M196.574,341.333h-3.05A1.525,1.525,0,0,0,192,342.858v19.823a1.525,1.525,0,1,0,3.05,0v-18.3h1.525a1.525,1.525,0,1,0,0-3.05Z" transform="translate(-192 -341.333)"/>
        </g>
      </g>
      <g id="Group_20" data-name="Group 20" transform="translate(36.596 70.142)">
        <g id="Group_19" data-name="Group 19">
          <path id="Path_10" data-name="Path 10" class="cls-3" d="M275.823,490.667h-18.3a1.525,1.525,0,0,0,0,3.05h18.3a1.525,1.525,0,0,0,0-3.05Z" transform="translate(-256 -490.667)"/>
        </g>
      </g>
      <g id="Group_22" data-name="Group 22" transform="translate(33.546 64.043)">
        <g id="Group_21" data-name="Group 21">
          <path id="Path_11" data-name="Path 11" class="cls-3" d="M245.34,448h-9.149a1.525,1.525,0,1,0,0,3.05h9.149a1.525,1.525,0,0,0,0-3.05Z" transform="translate(-234.666 -448)"/>
        </g>
      </g>
      <g id="Group_24" data-name="Group 24" transform="translate(54.894 64.043)">
        <g id="Group_23" data-name="Group 23">
          <path id="Path_12" data-name="Path 12" class="cls-3" d="M394.674,448h-9.149a1.525,1.525,0,1,0,0,3.05h9.149a1.525,1.525,0,1,0,0-3.05Z" transform="translate(-384 -448)"/>
        </g>
      </g>
      <g id="Group_26" data-name="Group 26" transform="translate(54.894 48.794)">
        <g id="Group_25" data-name="Group 25">
          <path id="Path_13" data-name="Path 13" class="cls-3" d="M391.623,341.333h-6.1a1.525,1.525,0,1,0,0,3.05h6.1a1.525,1.525,0,1,0,0-3.05Z" transform="translate(-383.999 -341.333)"/>
        </g>
      </g>
      <g id="Group_28" data-name="Group 28" transform="translate(45.745 48.794)">
        <g id="Group_27" data-name="Group 27">
          <path id="Path_14" data-name="Path 14" class="cls-3" d="M324.574,341.333h-3.05a1.525,1.525,0,1,0,0,3.05h3.05a1.525,1.525,0,1,0,0-3.05Z" transform="translate(-320 -341.333)"/>
        </g>
      </g>
      <g id="Group_30" data-name="Group 30" transform="translate(36.596 48.794)">
        <g id="Group_29" data-name="Group 29">
          <path id="Path_15" data-name="Path 15" class="cls-3" d="M260.574,341.333h-3.05a1.525,1.525,0,0,0,0,3.05h3.05a1.525,1.525,0,1,0,0-3.05Z" transform="translate(-256 -341.333)"/>
        </g>
      </g>
      <g id="Group_32" data-name="Group 32" transform="translate(54.894 54.894)">
        <g id="Group_31" data-name="Group 31">
          <path id="Path_16" data-name="Path 16" class="cls-3" d="M385.525,384A1.525,1.525,0,0,0,384,385.525v3.05a1.525,1.525,0,1,0,3.05,0v-3.05A1.526,1.526,0,0,0,385.525,384Z" transform="translate(-384 -384)"/>
        </g>
      </g>
      <g id="Group_34" data-name="Group 34" transform="translate(64.043 54.894)">
        <g id="Group_33" data-name="Group 33">
          <path id="Path_17" data-name="Path 17" class="cls-3" d="M449.525,384A1.525,1.525,0,0,0,448,385.525v3.05a1.525,1.525,0,1,0,3.05,0v-3.05A1.526,1.526,0,0,0,449.525,384Z" transform="translate(-448 -384)"/>
        </g>
      </g>
      <g id="Group_36" data-name="Group 36" transform="translate(33.546 54.894)">
        <g id="Group_35" data-name="Group 35">
          <path id="Path_18" data-name="Path 18" class="cls-3" d="M236.191,384a1.525,1.525,0,0,0-1.525,1.525v3.05a1.525,1.525,0,1,0,3.05,0v-3.05A1.525,1.525,0,0,0,236.191,384Z" transform="translate(-234.666 -384)"/>
        </g>
      </g>
      <g id="Group_38" data-name="Group 38" transform="translate(42.695 54.894)">
        <g id="Group_37" data-name="Group 37">
          <path id="Path_19" data-name="Path 19" class="cls-3" d="M300.191,384a1.525,1.525,0,0,0-1.525,1.525v3.05a1.525,1.525,0,1,0,3.05,0v-3.05A1.525,1.525,0,0,0,300.191,384Z" transform="translate(-298.666 -384)"/>
        </g>
      </g>
      <g id="Group_40" data-name="Group 40" transform="translate(3.05 33.546)">
        <g id="Group_39" data-name="Group 39">
          <path id="Path_20" data-name="Path 20" class="cls-3" d="M25.907,234.667h-3.05a1.525,1.525,0,1,0,0,3.05h3.05a1.525,1.525,0,1,0,0-3.05Z" transform="translate(-21.333 -234.667)"/>
        </g>
      </g>
      <g id="Group_42" data-name="Group 42" transform="translate(12.199 36.596)">
        <g id="Group_41" data-name="Group 41">
          <path id="Path_21" data-name="Path 21" class="cls-3" d="M89.907,256h-3.05a1.525,1.525,0,1,0,0,3.05h3.05a1.525,1.525,0,1,0,0-3.05Z" transform="translate(-85.333 -256)"/>
        </g>
      </g>
      <g id="Group_44" data-name="Group 44" transform="translate(45.745 42.695)">
        <g id="Group_43" data-name="Group 43">
          <path id="Path_22" data-name="Path 22" class="cls-3" d="M345.922,298.667h-24.4a1.525,1.525,0,1,0,0,3.05h24.4a1.525,1.525,0,1,0,0-3.05Z" transform="translate(-320 -298.667)"/>
        </g>
      </g>
      <g id="Group_46" data-name="Group 46" transform="translate(45.745 27.447)">
        <g id="Group_45" data-name="Group 45">
          <path id="Path_23" data-name="Path 23" class="cls-3" d="M345.922,192h-24.4a1.525,1.525,0,1,0,0,3.05h24.4a1.525,1.525,0,1,0,0-3.05Z" transform="translate(-320 -192)"/>
        </g>
      </g>
      <g id="Group_48" data-name="Group 48" transform="translate(27.447)">
        <g id="Group_47" data-name="Group 47">
          <path id="Path_24" data-name="Path 24" class="cls-3" d="M208.773,0H193.525a1.525,1.525,0,0,0,0,3.05h15.248a1.525,1.525,0,1,0,0-3.05Z" transform="translate(-192)"/>
        </g>
      </g>
      <g id="Group_50" data-name="Group 50" transform="translate(27.447 6.099)">
        <g id="Group_49" data-name="Group 49">
          <path id="Path_25" data-name="Path 25" class="cls-3" d="M193.525,42.667A1.525,1.525,0,0,0,192,44.192V59.44a1.525,1.525,0,1,0,3.05,0V44.192A1.525,1.525,0,0,0,193.525,42.667Z" transform="translate(-192 -42.667)"/>
        </g>
      </g>
      <g id="Group_52" data-name="Group 52" transform="translate(33.546 6.099)">
        <g id="Group_51" data-name="Group 51">
          <path id="Path_26" data-name="Path 26" class="cls-3" d="M236.191,42.667a1.525,1.525,0,0,0-1.525,1.525v3.05a1.525,1.525,0,0,0,3.05,0v-3.05A1.525,1.525,0,0,0,236.191,42.667Z" transform="translate(-234.666 -42.667)"/>
        </g>
      </g>
      <g id="Group_54" data-name="Group 54" transform="translate(36.596 15.248)">
        <g id="Group_53" data-name="Group 53">
          <path id="Path_27" data-name="Path 27" class="cls-3" d="M257.525,106.667A1.525,1.525,0,0,0,256,108.192v3.05a1.525,1.525,0,1,0,3.05,0v-3.05A1.525,1.525,0,0,0,257.525,106.667Z" transform="translate(-256 -106.667)"/>
        </g>
      </g>
      <g id="Group_56" data-name="Group 56" transform="translate(42.695)">
        <g id="Group_55" data-name="Group 55">
          <path id="Path_28" data-name="Path 28" class="cls-3" d="M300.191,0a1.525,1.525,0,0,0-1.525,1.525v18.3a1.525,1.525,0,1,0,3.05,0V1.525A1.525,1.525,0,0,0,300.191,0Z" transform="translate(-298.666)"/>
        </g>
      </g>
      <g id="Group_58" data-name="Group 58" transform="translate(57.943 36.596)">
        <g id="Group_57" data-name="Group 57">
          <path id="Path_29" data-name="Path 29" class="cls-3" d="M406.858,256a1.525,1.525,0,0,0-1.525,1.525V262.1a1.525,1.525,0,0,0,3.05,0v-4.575A1.525,1.525,0,0,0,406.858,256Z" transform="translate(-405.333 -256)"/>
        </g>
      </g>
      <g id="Group_60" data-name="Group 60" transform="translate(70.142 33.546)">
        <g id="Group_59" data-name="Group 59">
          <path id="Path_30" data-name="Path 30" class="cls-3" d="M492.191,234.667a1.525,1.525,0,0,0-1.525,1.525v3.05a1.525,1.525,0,1,0,3.05,0v-3.05A1.525,1.525,0,0,0,492.191,234.667Z" transform="translate(-490.666 -234.667)"/>
        </g>
      </g>
      <g id="Group_62" data-name="Group 62" transform="translate(45.745 33.546)">
        <g id="Group_61" data-name="Group 61">
          <path id="Path_31" data-name="Path 31" class="cls-3" d="M321.525,234.667A1.525,1.525,0,0,0,320,236.192v3.05a1.525,1.525,0,0,0,3.05,0v-3.05A1.525,1.525,0,0,0,321.525,234.667Z" transform="translate(-320 -234.667)"/>
        </g>
      </g>
      <g id="Group_64" data-name="Group 64" transform="translate(51.844 33.546)">
        <g id="Group_63" data-name="Group 63">
          <path id="Path_32" data-name="Path 32" class="cls-3" d="M364.191,234.667a1.525,1.525,0,0,0-1.525,1.525v3.05a1.525,1.525,0,0,0,3.05,0v-3.05A1.525,1.525,0,0,0,364.191,234.667Z" transform="translate(-362.666 -234.667)"/>
        </g>
      </g>
      <g id="Group_66" data-name="Group 66" transform="translate(27.447 27.447)">
        <g id="Group_65" data-name="Group 65">
          <path id="Path_33" data-name="Path 33" class="cls-3" d="M193.525,192A1.525,1.525,0,0,0,192,193.525v15.248a1.525,1.525,0,1,0,3.05,0V193.525A1.526,1.526,0,0,0,193.525,192Z" transform="translate(-192 -192)"/>
        </g>
      </g>
      <g id="Group_68" data-name="Group 68" transform="translate(28.972 30.496)">
        <g id="Group_67" data-name="Group 67">
          <path id="Path_34" data-name="Path 34" class="cls-3" d="M208.765,213.333h-4.574a1.525,1.525,0,1,0,0,3.05h4.574a1.525,1.525,0,1,0,0-3.05Z" transform="translate(-202.666 -213.333)"/>
        </g>
      </g>
      <g id="Group_70" data-name="Group 70" transform="translate(39.645 24.397)">
        <g id="Group_69" data-name="Group 69">
          <path id="Path_35" data-name="Path 35" class="cls-3" d="M278.858,170.667a1.525,1.525,0,0,0-1.525,1.525V187.44a1.525,1.525,0,0,0,3.05,0V172.192A1.525,1.525,0,0,0,278.858,170.667Z" transform="translate(-277.333 -170.667)"/>
        </g>
      </g>
      <g id="Group_72" data-name="Group 72" transform="translate(33.546 36.596)">
        <g id="Group_71" data-name="Group 71">
          <path id="Path_36" data-name="Path 36" class="cls-3" d="M240.765,256h-4.574a1.525,1.525,0,1,0,0,3.05h4.574a1.525,1.525,0,1,0,0-3.05Z" transform="translate(-234.666 -256)"/>
        </g>
      </g>
      <g id="Group_74" data-name="Group 74" transform="translate(6.099 6.099)">
        <g id="Group_73" data-name="Group 73">
          <path id="Path_37" data-name="Path 37" class="cls-3" d="M53.34,42.667H44.191a1.525,1.525,0,0,0-1.525,1.525v9.149a1.525,1.525,0,0,0,1.525,1.525H53.34a1.525,1.525,0,0,0,1.525-1.525V44.192A1.525,1.525,0,0,0,53.34,42.667Z" transform="translate(-42.666 -42.667)"/>
        </g>
      </g>
      <g id="Group_76" data-name="Group 76" transform="translate(54.894 6.099)">
        <g id="Group_75" data-name="Group 75">
          <path id="Path_38" data-name="Path 38" class="cls-3" d="M394.674,42.667h-9.149A1.525,1.525,0,0,0,384,44.192v9.149a1.525,1.525,0,0,0,1.525,1.525h9.149a1.525,1.525,0,0,0,1.525-1.525V44.192A1.526,1.526,0,0,0,394.674,42.667Z" transform="translate(-384 -42.667)"/>
        </g>
      </g>
      <g id="Group_78" data-name="Group 78" transform="translate(6.099 54.894)">
        <g id="Group_77" data-name="Group 77">
          <path id="Path_39" data-name="Path 39" class="cls-3" d="M53.34,384H44.191a1.525,1.525,0,0,0-1.525,1.525v9.149a1.525,1.525,0,0,0,1.525,1.525H53.34a1.525,1.525,0,0,0,1.525-1.525v-9.149A1.525,1.525,0,0,0,53.34,384Z" transform="translate(-42.666 -384)"/>
        </g>
      </g>
    </g>
    <g id="Rectangle_2" data-name="Rectangle 2" class="cls-6" transform="translate(492 240)">
      <rect class="cls-8" width="263" height="415" rx="8"/>
      <rect class="cls-1" x="2.5" y="2.5" width="258" height="410" rx="5.5"/>
    </g>
    <g id="Rectangle_4" data-name="Rectangle 4" class="cls-6" transform="translate(514 260)">
      <rect class="cls-8" width="219" height="308"/>
      <rect class="cls-1" x="2.5" y="2.5" width="214" height="303"/>
    </g>
    <g id="Rectangle_3" data-name="Rectangle 3" class="cls-6" transform="translate(492 585)">
      <path class="cls-8" d="M0,0H263a0,0,0,0,1,0,0V62a8,8,0,0,1-8,8H8a8,8,0,0,1-8-8V0A0,0,0,0,1,0,0Z"/>
      <path class="cls-1" d="M5,2.5H258A2.5,2.5,0,0,1,260.5,5V62a5.5,5.5,0,0,1-5.5,5.5H8A5.5,5.5,0,0,1,2.5,62V5A2.5,2.5,0,0,1,5,2.5Z"/>
    </g>
    <g id="beer_5_" data-name="beer (5)" transform="translate(831.3 369.199)">
      <g id="Group_80" data-name="Group 80" transform="translate(131.594 75.219)">
        <g id="Group_79" data-name="Group 79">
          <path id="Path_40" data-name="Path 40" class="cls-3" d="M383.792,256.262h-16.6a3.77,3.77,0,0,0-3.771,3.771V261.4a9.068,9.068,0,0,1-5.2,8.233l-7.848-29.286h5.384a3.771,3.771,0,0,0,0-7.541h-7.577a19.851,19.851,0,0,1-2.794-.2h-.008a19.79,19.79,0,0,1-16.961-19.56v-8.49a3.77,3.77,0,0,0-3.77-3.771h-9.818a12.215,12.215,0,0,1-12.2-12.2v-.537h29.825a25.312,25.312,0,0,1,13.976,4.182,3.77,3.77,0,1,0,4.152-6.3,32.8,32.8,0,0,0-16.767-5.4c-3.371-7.111-9.727-13.765-18.234-19.038-1.125-4.163-2.682-9.5-4.27-14.637-1.231-3.97-2.918-9.218-4.483-13.444a12.191,12.191,0,0,0-12.361-19.784l-16.823,4.505a12.2,12.2,0,0,0-.813,23.318c.343,2.014.8,4.384,1.356,7.081a3.77,3.77,0,0,0,7.384-1.531c-.79-3.809-1.356-6.908-1.684-9.212a3.772,3.772,0,0,0-3.44-3.229,4.662,4.662,0,0,1-.851-9.144l16.818-4.5a4.656,4.656,0,0,1,3.837,8.34,3.77,3.77,0,0,0-1.365,4.515c1.347,3.352,3.152,8.65,5.22,15.318,1.753,5.668,3.463,11.577,4.575,15.807a3.775,3.775,0,0,0,1.736,2.292c4.03,2.368,10.575,6.9,14.765,13.315H299.925a4.843,4.843,0,0,0-4.838,4.837v3.241a19.611,19.611,0,0,0,2.23,9.1,30.169,30.169,0,0,0-3.181,2.556,13.185,13.185,0,0,0-9.613-5.11c-.056-.692-.092-1.394-.092-2.11,0-7.946,3.359-15.544,6.177-20.518a3.773,3.773,0,0,0,.357-2.849c-.662-2.432-1.444-5.488-2.2-8.606a3.771,3.771,0,0,0-7.328,1.779c.626,2.582,1.271,5.127,1.855,7.329-3.08,5.751-6.4,14.007-6.4,22.865,0,.7.029,1.394.071,2.081h-2.007a13.2,13.2,0,0,0-2.774,26.1,13.178,13.178,0,0,0,5.6,17.614,13.173,13.173,0,0,0,4.051,18.367,13.187,13.187,0,0,0,10.724,20.876h5.974l2.824,10.538a8.9,8.9,0,0,0,10.907,6.3l40.6-10.875a8.907,8.907,0,0,0,6.387-6.7A16.556,16.556,0,0,0,370.793,263.8h13a3.77,3.77,0,1,0,0-7.54Zm-86.9-47.961a.01.01,0,0,0,0,0,22.55,22.55,0,0,1,5.128-4.7,19.657,19.657,0,0,0,12.81,4.737h6.047v4.72a27.348,27.348,0,0,0,20.19,26.357,22.488,22.488,0,0,1-27.593,20.369,13.276,13.276,0,0,0-5.169-6.089,13.177,13.177,0,0,0-4.555-19.34,13.185,13.185,0,0,0-8.283-20.094A13.113,13.113,0,0,0,296.893,208.3Zm-21.938,5.656a5.656,5.656,0,1,1,0-11.313h6.283l.017,0,.028,0H283.7a5.656,5.656,0,0,1,0,11.313Zm3.343,13.2a5.663,5.663,0,0,1,5.656-5.656H292.7a5.657,5.657,0,0,1,0,11.313h-8.742A5.663,5.663,0,0,1,278.3,227.154Zm4.888,18.854a5.663,5.663,0,0,1,5.656-5.656h8.742a5.656,5.656,0,0,1,0,11.313h-8.742A5.663,5.663,0,0,1,283.186,246.008Zm18.121,24.51h-8.748a5.657,5.657,0,0,1,0-11.313H301.3a5.656,5.656,0,0,1,.007,11.313Zm49.6,6.217-40.6,10.875a1.368,1.368,0,0,1-1.672-.964l-2.544-9.492a13.244,13.244,0,0,0,8.116-9.564,29.71,29.71,0,0,0,4.4.331,30.026,30.026,0,0,0,26.877-16.657l6.378,23.8A1.367,1.367,0,0,1,350.909,276.736Z" transform="translate(-261.757 -113.218)"/>
        </g>
      </g>
      <g id="Group_82" data-name="Group 82" transform="translate(224.421 158.223)">
        <g id="Group_81" data-name="Group 81">
          <path id="Path_41" data-name="Path 41" class="cls-3" d="M475.609,291.513H456.98a32.978,32.978,0,0,0-3.466-11.162,3.771,3.771,0,0,0-6.687,3.486c3.934,7.543,2.6,13.553,2.865,17.384a3.771,3.771,0,0,0,7.541,0v-2.168h18.375a3.771,3.771,0,0,0,0-7.541Z" transform="translate(-446.4 -278.323)"/>
        </g>
      </g>
      <g id="Group_84" data-name="Group 84" transform="translate(0 75.219)">
        <g id="Group_83" data-name="Group 83">
          <path id="Path_42" data-name="Path 42" class="cls-3" d="M125.805,208.3a13.213,13.213,0,0,0-13.2-13.2H110.6c.042-.688.071-1.38.071-2.081,0-8.858-3.321-17.115-6.4-22.865,2.072-7.812,5.064-20.511,6.462-28.7a12.245,12.245,0,0,0,3.748-2.087,12.2,12.2,0,0,0-4.561-21.232l-16.825-4.5a12.194,12.194,0,0,0-12.358,19.784c-.685,1.849-1.441,4.02-2.258,6.487a3.771,3.771,0,0,0,7.158,2.372c1.164-3.514,2.188-6.375,3.043-8.5a3.771,3.771,0,0,0-1.366-4.514,4.653,4.653,0,0,1,3.834-8.341l16.821,4.5a4.663,4.663,0,0,1-.85,9.144,3.77,3.77,0,0,0-3.439,3.228c-1.124,7.893-4.9,23.847-7.08,31.857a3.769,3.769,0,0,0,.357,2.848c2.818,4.975,6.177,12.573,6.177,20.518,0,.706-.035,1.4-.09,2.081H85.76s-3.2-1.332-4.891-1.782a29.833,29.833,0,0,0-20.4,1.782H57.12l2.006-7.486c.166-.621.359-1.23.576-1.827.044-.1.083-.2.118-.309,3.4-9,12.162-15.249,17.327-18.286a3.771,3.771,0,0,0,1.733-2.282c.659-2.48,1.409-5.177,2.418-8.627a3.771,3.771,0,0,0-7.238-2.118c-.679,2.321-1.435,4.972-2.073,7.335-5.679,3.529-13.945,9.9-18.259,19.046A32.915,32.915,0,0,0,22.4,209.414H3.771a3.771,3.771,0,0,0,0,7.541H25.921a3.771,3.771,0,0,0,3.771-3.734A25.422,25.422,0,0,1,43.129,191.05c.05-.027.1-.058.144-.087a25.14,25.14,0,0,1,7.844-2.595l-1.8,6.735h-.5a3.771,3.771,0,1,0,0,7.541h57.47l.029,0,.018,0h6.283a5.656,5.656,0,1,1,0,11.313h-9a3.771,3.771,0,0,0,0,7.541,5.656,5.656,0,0,1,0,11.313H98.72a3.771,3.771,0,1,0,0,7.541,5.657,5.657,0,1,1,0,11.313H95a3.771,3.771,0,1,0,0,7.541,5.657,5.657,0,0,1,0,11.313H33.256a9.125,9.125,0,0,1-9.114-9.114v-1.373a3.77,3.77,0,0,0-3.771-3.771H3.771a3.771,3.771,0,1,0,0,7.541h13A16.7,16.7,0,0,0,28.3,277.3a8.854,8.854,0,0,0,6.4,6.717C76.667,295.153,75.43,295.2,77.6,295.2a8.922,8.922,0,0,0,8.6-6.6l2.825-10.539H95a13.192,13.192,0,0,0,10.729-20.875,13.184,13.184,0,0,0,4.05-18.368,13.192,13.192,0,0,0,5.605-17.613A13.221,13.221,0,0,0,125.805,208.3ZM78.922,286.647a1.368,1.368,0,0,1-1.672.964L41.6,278.06H81.224Z" transform="translate(0 -113.219)"/>
        </g>
      </g>
      <g id="Group_86" data-name="Group 86" transform="translate(124.93 36.801)">
        <g id="Group_85" data-name="Group 85">
          <path id="Path_43" data-name="Path 43" class="cls-3" d="M252.271,36.8a3.77,3.77,0,0,0-3.771,3.771v15.4a3.771,3.771,0,0,0,7.541,0v-15.4A3.77,3.77,0,0,0,252.271,36.8Z" transform="translate(-248.5 -36.801)"/>
        </g>
      </g>
      <g id="Group_88" data-name="Group 88" transform="translate(101.308 42.795)">
        <g id="Group_87" data-name="Group 87">
          <path id="Path_44" data-name="Path 44" class="cls-3" d="M218.957,63.471l-10.733-13.34a3.771,3.771,0,1,0-5.876,4.727L213.081,68.2a3.771,3.771,0,1,0,5.876-4.727Z" transform="translate(-201.515 -48.724)"/>
        </g>
      </g>
      <g id="Group_90" data-name="Group 90" transform="translate(137.817 42.795)">
        <g id="Group_89" data-name="Group 89">
          <path id="Path_45" data-name="Path 45" class="cls-3" d="M291,49.556a3.771,3.771,0,0,0-5.3.575l-10.733,13.34a3.771,3.771,0,0,0,5.876,4.727l10.733-13.34A3.77,3.77,0,0,0,291,49.556Z" transform="translate(-274.135 -48.724)"/>
        </g>
      </g>
    </g>
    <g id="Group_91" data-name="Group 91" transform="translate(39.367 10.868)">
      <path id="Path_46" data-name="Path 46" class="cls-6" d="M1578.7,469.077V454.2h14.882" transform="translate(-1321.064 26.937)"/>
      <path id="Path_47" data-name="Path 47" class="cls-6" d="M0,14.882V0H14.882" transform="translate(257.633 528.854) rotate(-90)"/>
      <path id="Path_48" data-name="Path 48" class="cls-6" d="M0,14.882V0H14.882" transform="translate(305.355 528.854) rotate(180)"/>
      <path id="Path_49" data-name="Path 49" class="cls-6" d="M0,14.882V0H14.882" transform="translate(305.355 481.132) rotate(90)"/>
    </g>
    <path id="Path_50" data-name="Path 50" class="cls-7" d="M1592.659,361.752l28.4-6.882,15.085,13.059,11.111-29.788,31.179-14.014-21.774-57.755-82.012,61.769Z" transform="translate(-1384 9)"/>
    <path id="Path_51" data-name="Path 51" class="cls-7" d="M2139,173.639l24.929,30.55-15.153,22.659h31.372l13.067,14.388,56.684-37.046L2158,136.23Z" transform="translate(-1384 9)"/>
    <path id="Path_52" data-name="Path 52" class="cls-7" d="M2369.343,390.635l8.781,22.477,25.754-16.667,28.09,16.667,30.867-36.361-119.121-99.484L2303,342.727Z" transform="translate(-1374 -1)"/>
  </g>
</svg>
