<svg id="sharing" xmlns="http://www.w3.org/2000/svg" viewBox="0 0 185.677 186.499">
  <defs>
    <style>
      .cls-1 {
        fill: #75dc5e;
      }

      .cls-2 {
        fill: #2aad52;
      }

      .cls-3 {
        fill: #f2a077;
      }

      .cls-4 {
        fill: #fca;
      }

      .cls-5 {
        fill: #475d6d;
      }

      .cls-6 {
        fill: #2c3f4f;
      }

      .cls-7 {
        fill: #2bb4f3;
      }

      .cls-8 {
        fill: #1687c4;
      }

      .cls-9 {
        fill: #f9dc6a;
      }

      .cls-10 {
        fill: #e5ac51;
      }

      .cls-11 {
        fill: #8ba7bc;
      }

      .cls-12 {
        fill: #ebeae6;
      }

      .cls-13 {
        fill: #c9c5b5;
      }
    </style>
  </defs>
  <path id="Path_85" data-name="Path 85" class="cls-1" d="M61.84,451.548H3.673a.751.751,0,0,1-.746-.837l2.167-18.747a17.006,17.006,0,0,1,16.9-15.053H43.522a17.006,17.006,0,0,1,16.9,15.053l2.167,18.747A.751.751,0,0,1,61.84,451.548Z" transform="translate(-2.269 -265.049)"/>
  <g id="Group_523" data-name="Group 523" transform="translate(9.117 151.862)">
    <path id="Path_86" data-name="Path 86" class="cls-2" d="M120.758,431.963a17.006,17.006,0,0,0-16.9-15.053H97.835a17.006,17.006,0,0,1,16.9,15.053L117,451.548h5.185a.751.751,0,0,0,.746-.837Z" transform="translate(-71.726 -416.911)"/>
    <path id="Path_87" data-name="Path 87" class="cls-2" d="M31.708,481.152v-14.9a2.775,2.775,0,0,0-5.551,0v14.9Z" transform="translate(-26.157 -446.516)"/>
    <path id="Path_88" data-name="Path 88" class="cls-2" d="M133.809,481.152v-14.9a2.775,2.775,0,0,0-5.551,0v14.9Z" transform="translate(-91.067 -446.516)"/>
  </g>
  <path id="Path_89" data-name="Path 89" class="cls-3" d="M63.344,381.086v15.773a7.825,7.825,0,0,0,7.825,7.825h0a7.825,7.825,0,0,0,7.825-7.825V381.086Z" transform="translate(-40.682 -242.273)"/>
  <path id="Path_90" data-name="Path 90" class="cls-4" d="M57.233,269.669H52.468V258.179A15.064,15.064,0,0,0,37.4,243.115H25.829a15.064,15.064,0,0,0-15.064,15.064v11.489H6a4.87,4.87,0,0,0-4.87,4.87v2.3A4.87,4.87,0,0,0,6,281.713h4.8a20.85,20.85,0,0,0,41.643,0h4.8a4.87,4.87,0,0,0,4.87-4.87v-2.3A4.87,4.87,0,0,0,57.233,269.669Z" transform="translate(-1.129 -154.559)"/>
  <path id="Path_91" data-name="Path 91" class="cls-3" d="M104.958,269.669h-4.765V258.179a15.064,15.064,0,0,0-15.064-15.064H78.844a15.064,15.064,0,0,1,15.064,15.064v11.489l-.03,12.045A20.856,20.856,0,0,1,76.2,301.236a20.853,20.853,0,0,0,23.964-19.523h4.8a4.871,4.871,0,0,0,4.87-4.87v-2.3A4.87,4.87,0,0,0,104.958,269.669Z" transform="translate(-48.854 -154.559)"/>
  <g id="Group_524" data-name="Group 524" transform="translate(9.635 80.48)">
    <path id="Path_92" data-name="Path 92" class="cls-5" d="M66.4,353.979A11.174,11.174,0,0,1,56.041,347a2.732,2.732,0,0,1,5.067-2.045,5.625,5.625,0,0,0,1.25,1.884,5.717,5.717,0,0,0,9.335-1.888,2.732,2.732,0,0,1,5.064,2.054A11.129,11.129,0,0,1,66.4,353.979Z" transform="translate(-45.548 -298.699)"/>
    <path id="Path_93" data-name="Path 93" class="cls-5" d="M51.4,315.926a2.732,2.732,0,0,1-2.732-2.732v-1.008a2.732,2.732,0,0,1,5.464,0v1.008A2.732,2.732,0,0,1,51.4,315.926Z" transform="translate(-40.988 -277.214)"/>
    <path id="Path_94" data-name="Path 94" class="cls-5" d="M108.715,315.926a2.732,2.732,0,0,1-2.732-2.732v-1.008a2.732,2.732,0,0,1,5.464,0v1.008A2.732,2.732,0,0,1,108.715,315.926Z" transform="translate(-77.425 -277.214)"/>
    <path id="Path_95" data-name="Path 95" class="cls-5" d="M27.581,245.609h6a4.3,4.3,0,0,0,3.925-2.546l1.555-3.484a1.6,1.6,0,0,1,2.442-.61l7.374,5.735a4.3,4.3,0,0,0,2.639.906H69.285V232.661a11.717,11.717,0,0,0-11.717-11.717H43.322a3.856,3.856,0,0,0-3.856,3.856v2.063H33.253a5.672,5.672,0,0,0-5.671,5.671v13.074Z" transform="translate(-27.581 -220.944)"/>
  </g>
  <path id="Path_96" data-name="Path 96" class="cls-6" d="M98.114,220.943H91.36a11.717,11.717,0,0,1,11.717,11.717v12.948h6.754V232.66A11.717,11.717,0,0,0,98.114,220.943Z" transform="translate(-58.493 -140.463)"/>
  <path id="Path_97" data-name="Path 97" class="cls-7" d="M404.187,451.548H346.02a.751.751,0,0,1-.746-.837l2.167-18.747a17.006,17.006,0,0,1,16.9-15.053h21.532a17.006,17.006,0,0,1,16.9,15.053l2.167,18.747A.751.751,0,0,1,404.187,451.548Z" transform="translate(-219.914 -265.049)"/>
  <g id="Group_525" data-name="Group 525" transform="translate(133.819 151.862)">
    <path id="Path_98" data-name="Path 98" class="cls-8" d="M463.105,431.963a17.006,17.006,0,0,0-16.9-15.053h-6.027a17.006,17.006,0,0,1,16.9,15.053l2.264,19.584h5.185a.751.751,0,0,0,.746-.837Z" transform="translate(-414.073 -416.911)"/>
    <path id="Path_99" data-name="Path 99" class="cls-8" d="M374.055,481.152v-14.9a2.775,2.775,0,0,0-5.551,0v14.9Z" transform="translate(-368.504 -446.516)"/>
    <path id="Path_100" data-name="Path 100" class="cls-8" d="M476.156,481.152v-14.9a2.775,2.775,0,0,0-5.551,0v14.9Z" transform="translate(-433.414 -446.516)"/>
  </g>
  <path id="Path_101" data-name="Path 101" class="cls-3" d="M405.691,381.086v15.773a7.825,7.825,0,0,0,7.825,7.825h0a7.825,7.825,0,0,0,7.825-7.825V381.086Z" transform="translate(-258.327 -242.273)"/>
  <path id="Path_102" data-name="Path 102" class="cls-4" d="M399.58,265.241h-4.765V254.669A18.519,18.519,0,0,0,376.3,236.15h-4.666a18.519,18.519,0,0,0-18.519,18.519v10.572h-4.765a4.87,4.87,0,0,0-4.87,4.87v2.3a4.87,4.87,0,0,0,4.87,4.87h4.8a20.85,20.85,0,0,0,41.643,0h4.8a4.87,4.87,0,0,0,4.87-4.87v-2.3A4.87,4.87,0,0,0,399.58,265.241Z" transform="translate(-218.773 -150.131)"/>
  <path id="Path_103" data-name="Path 103" class="cls-3" d="M447.306,269.669h-4.765V258.179a15.064,15.064,0,0,0-15.064-15.064h-6.286a15.064,15.064,0,0,1,15.064,15.064v11.489l-.03,12.045a20.856,20.856,0,0,1-17.679,19.523,20.853,20.853,0,0,0,23.964-19.523h4.8a4.87,4.87,0,0,0,4.87-4.87v-2.3A4.871,4.871,0,0,0,447.306,269.669Z" transform="translate(-266.499 -154.559)"/>
  <g id="Group_526" data-name="Group 526" transform="translate(142.019 112.721)">
    <path id="Path_104" data-name="Path 104" class="cls-5" d="M408.748,353.979A11.173,11.173,0,0,1,398.389,347a2.732,2.732,0,1,1,5.067-2.044,5.627,5.627,0,0,0,1.25,1.883,5.716,5.716,0,0,0,9.335-1.888,2.732,2.732,0,0,1,5.064,2.054A11.131,11.131,0,0,1,408.748,353.979Z" transform="translate(-395.577 -330.939)"/>
    <path id="Path_105" data-name="Path 105" class="cls-5" d="M393.749,315.926a2.732,2.732,0,0,1-2.732-2.732v-1.008a2.732,2.732,0,0,1,5.464,0v1.008A2.732,2.732,0,0,1,393.749,315.926Z" transform="translate(-391.017 -309.455)"/>
    <path id="Path_106" data-name="Path 106" class="cls-5" d="M451.062,315.926a2.732,2.732,0,0,1-2.732-2.732v-1.008a2.732,2.732,0,1,1,5.464,0v1.008A2.732,2.732,0,0,1,451.062,315.926Z" transform="translate(-427.453 -309.455)"/>
  </g>
  <path id="Path_107" data-name="Path 107" class="cls-9" d="M351.983,217.461h30.031a18.21,18.21,0,0,1,18.21,18.21v7.117H364.018a12.035,12.035,0,0,1-12.035-12.035Z" transform="translate(-224.182 -138.249)"/>
  <path id="Path_108" data-name="Path 108" class="cls-10" d="M422.8,217.461h-6.661a18.21,18.21,0,0,1,18.21,18.21v7.117h6.661v-7.117A18.209,18.209,0,0,0,422.8,217.461Z" transform="translate(-264.971 -138.249)"/>
  <g id="Group_527" data-name="Group 527" transform="translate(27.755 39.411)">
    <path id="Path_109" data-name="Path 109" class="cls-11" d="M368.748,113.659h-1.821a2.732,2.732,0,0,1,0-5.464h1.821a2.732,2.732,0,1,1,0,5.464Z" transform="translate(-259.701 -108.195)"/>
    <path id="Path_110" data-name="Path 110" class="cls-11" d="M408.961,128.95a2.732,2.732,0,0,1-2.732-2.732v-4.111a2.732,2.732,0,1,1,5.464,0v4.111A2.732,2.732,0,0,1,408.961,128.95Zm-3.92-13.495a2.719,2.719,0,0,1-1.554-.487,6.263,6.263,0,0,0-2.643-1.053,2.732,2.732,0,1,1,.826-5.4,11.845,11.845,0,0,1,4.928,1.963,2.732,2.732,0,0,1-1.558,4.978Z" transform="translate(-281.527 -108.378)"/>
    <path id="Path_111" data-name="Path 111" class="cls-11" d="M422.406,186.321a2.732,2.732,0,0,1-2.732-2.732v-1.821a2.732,2.732,0,0,1,5.464,0v1.821A2.732,2.732,0,0,1,422.406,186.321Z" transform="translate(-294.972 -153.232)"/>
    <path id="Path_112" data-name="Path 112" class="cls-11" d="M80.058,186.321a2.732,2.732,0,0,1-2.732-2.732v-1.821a2.732,2.732,0,0,1,5.464,0v1.821A2.732,2.732,0,0,1,80.058,186.321Z" transform="translate(-77.326 -153.232)"/>
    <path id="Path_113" data-name="Path 113" class="cls-11" d="M80.058,128.959a2.732,2.732,0,0,1-2.732-2.732v-4.111a2.732,2.732,0,0,1,5.464,0v4.111A2.732,2.732,0,0,1,80.058,128.959Zm3.914-13.5a2.732,2.732,0,0,1-1.56-4.976,11.843,11.843,0,0,1,4.927-1.967,2.732,2.732,0,1,1,.83,5.4,6.259,6.259,0,0,0-2.64,1.055A2.719,2.719,0,0,1,83.971,115.461Z" transform="translate(-77.326 -108.379)"/>
    <path id="Path_114" data-name="Path 114" class="cls-11" d="M132.358,113.659h-1.821a2.732,2.732,0,0,1,0-5.464h1.821a2.732,2.732,0,0,1,0,5.464Z" transform="translate(-109.418 -108.195)"/>
  </g>
  <ellipse id="Ellipse_2" data-name="Ellipse 2" class="cls-12" cx="42.141" cy="42.141" rx="42.141" ry="42.141" transform="translate(50.698 0)"/>
  <path id="Path_115" data-name="Path 115" class="cls-13" d="M227.8,18.561A42.143,42.143,0,0,1,175.62,84.25,42.143,42.143,0,1,0,227.8,18.561Z" transform="translate(-112.061 -11.8)"/>
  <path id="Path_116" data-name="Path 116" class="cls-9" d="M245.18,91.191a14.518,14.518,0,1,0-22.345,12.224v5.908a2.024,2.024,0,0,0,2.024,2.024h11.606a2.024,2.024,0,0,0,2.024-2.024v-5.908A14.5,14.5,0,0,0,245.18,91.191Z" transform="translate(-137.824 -48.745)"/>
  <g id="Group_528" data-name="Group 528" transform="translate(76.346 12.067)">
    <path id="Path_117" data-name="Path 117" class="cls-5" d="M251.949,171.861H241.08v5.234a5.435,5.435,0,0,0,5.435,5.435h0a5.435,5.435,0,0,0,5.435-5.435v-5.234Z" transform="translate(-230.023 -121.327)"/>
    <path id="Path_118" data-name="Path 118" class="cls-5" d="M251.232,41.552a2.732,2.732,0,0,1-2.732-2.732v-2.96a2.732,2.732,0,0,1,5.464,0v2.96A2.732,2.732,0,0,1,251.232,41.552Z" transform="translate(-234.74 -33.129)"/>
    <path id="Path_119" data-name="Path 119" class="cls-5" d="M214.939,52.147a2.731,2.731,0,0,1-2.368-1.366l-1.48-2.563a2.732,2.732,0,1,1,4.732-2.732l1.48,2.563a2.733,2.733,0,0,1-2.363,4.1Z" transform="translate(-210.724 -40.116)"/>
    <path id="Path_120" data-name="Path 120" class="cls-5" d="M284.941,52.147a2.733,2.733,0,0,1-2.363-4.1l1.48-2.563a2.732,2.732,0,1,1,4.732,2.732l-1.48,2.563A2.731,2.731,0,0,1,284.941,52.147Z" transform="translate(-256.171 -40.116)"/>
  </g>
</svg>
