<svg id="honest_1_" data-name="honest (1)" xmlns="http://www.w3.org/2000/svg" viewBox="0 0 158.281 186.499">
  <defs>
    <style>
      .cls-1 {
        fill: #2aad52;
      }

      .cls-2 {
        fill: #2bb4f3;
      }

      .cls-3 {
        fill: #1687c4;
      }

      .cls-4 {
        fill: #f2a077;
      }

      .cls-5 {
        fill: #fca;
      }

      .cls-6 {
        fill: #475d6d;
      }

      .cls-7 {
        fill: #f9dc6a;
      }

      .cls-8 {
        fill: #e5ac51;
      }

      .cls-9 {
        fill: #ff5a59;
      }

      .cls-10 {
        fill: #8ba7bc;
      }
    </style>
  </defs>
  <path id="Path_53" data-name="Path 53" class="cls-1" d="M341.306,338.31H332.3a22.031,22.031,0,0,1,22.031,22.031v41.236h7.505a1.5,1.5,0,0,0,1.5-1.5V360.342A22.032,22.032,0,0,0,341.306,338.31Z" transform="translate(-225.367 -215.079)"/>
  <path id="Path_54" data-name="Path 54" class="cls-2" d="M154.673,302.267H66.587a3.1,3.1,0,0,1-3.1-3.1V283.248a1.632,1.632,0,0,0-1.632-1.632H40.366a1.632,1.632,0,0,0-1.632,1.632V314.7a12.322,12.322,0,0,0,12.322,12.322H98.613A3.285,3.285,0,0,1,101.9,330.3v33.73a1.5,1.5,0,0,0,1.5,1.5h71.8a1.5,1.5,0,0,0,1.5-1.5V324.3A22.032,22.032,0,0,0,154.673,302.267Z" transform="translate(-38.734 -179.036)"/>
  <path id="Path_55" data-name="Path 55" class="cls-3" d="M341,338.31h-9.183a22.032,22.032,0,0,1,22.032,22.031v41.236h7.681a1.5,1.5,0,0,0,1.5-1.5V360.342A22.032,22.032,0,0,0,341,338.31Z" transform="translate(-225.059 -215.079)"/>
  <path id="Path_56" data-name="Path 56" class="cls-4" d="M258.072,277.548V301.3a3.144,3.144,0,0,0,.713,1.993l1.724,2.1a14.015,14.015,0,0,0,21.672,0l1.724-2.1a3.144,3.144,0,0,0,.713-1.993V277.548Z" transform="translate(-178.177 -176.449)"/>
  <path id="Path_57" data-name="Path 57" class="cls-5" d="M251.681,81.047h-2.749V63.114A31.413,31.413,0,0,0,217.52,31.7h-7.915a31.413,31.413,0,0,0-31.412,31.412V81.047h-2.749a8.261,8.261,0,0,0-8.261,8.261v3.907a8.261,8.261,0,0,0,8.261,8.261h2.8a35.367,35.367,0,0,0,70.637,0h2.8a8.261,8.261,0,0,0,8.261-8.261V89.308A8.261,8.261,0,0,0,251.681,81.047Z" transform="translate(-120.394 -20.154)"/>
  <path id="Path_58" data-name="Path 58" class="cls-4" d="M324.934,81.047h-2.749V63.114A31.412,31.412,0,0,0,290.773,31.7h-7.915c-.152,0-.3.009-.452.012a31.407,31.407,0,0,1,30.961,31.4V81.047l-.051,20.43a35.378,35.378,0,0,1-30.909,33.245,35.717,35.717,0,0,0,4.409.273,35.37,35.37,0,0,0,35.319-33.518h2.8a8.261,8.261,0,0,0,8.261-8.262V89.308A8.261,8.261,0,0,0,324.934,81.047Z" transform="translate(-193.647 -20.154)"/>
  <g id="Group_518" data-name="Group 518" transform="translate(72.73 58.742)">
    <path id="Path_59" data-name="Path 59" class="cls-6" d="M266.576,232.985a17.05,17.05,0,0,1-15.806-10.641,2.732,2.732,0,1,1,5.067-2.045,11.6,11.6,0,0,0,21.481,0,2.732,2.732,0,1,1,5.064,2.054A16.984,16.984,0,0,1,266.576,232.985Z" transform="translate(-246.138 -197.709)"/>
    <path id="Path_60" data-name="Path 60" class="cls-6" d="M241.134,168.439a2.732,2.732,0,0,1-2.732-2.732V164a2.732,2.732,0,0,1,5.464,0v1.708A2.732,2.732,0,0,1,241.134,168.439Z" transform="translate(-238.402 -161.267)"/>
    <path id="Path_61" data-name="Path 61" class="cls-6" d="M338.351,168.439a2.732,2.732,0,0,1-2.732-2.732V164a2.732,2.732,0,0,1,5.464,0v1.708A2.731,2.731,0,0,1,338.351,168.439Z" transform="translate(-300.207 -161.267)"/>
  </g>
  <path id="Path_62" data-name="Path 62" class="cls-7" d="M166.969,0h50.94A30.887,30.887,0,0,1,248.8,30.887V42.96H187.383a20.414,20.414,0,0,1-20.414-20.414Z" transform="translate(-120.259)"/>
  <path id="Path_63" data-name="Path 63" class="cls-8" d="M291.1,0h-9.006a30.887,30.887,0,0,1,30.887,30.887V42.96h9.006V30.887A30.887,30.887,0,0,0,291.1,0Z" transform="translate(-193.447)"/>
  <path id="Path_64" data-name="Path 64" class="cls-5" d="M78.046,171.606h0a5.027,5.027,0,0,0-7-1.236l-6.935,4.854V166.2a12.184,12.184,0,0,0-12.184-12.184h0A12.184,12.184,0,0,0,39.743,166.2V180.69a7.836,7.836,0,0,0,1.625,4.778l1.527,1.984v13.041H60.959V189.7l15.852-11.094A5.027,5.027,0,0,0,78.046,171.606Z" transform="translate(-39.375 -97.912)"/>
  <path id="Path_65" data-name="Path 65" class="cls-9" d="M376.381,430.919c-1.406-9.947-11.471-7.729-13.414-1.995-1.943-5.734-12.008-7.952-13.414,1.995-1.571,11.121,10.9,16.663,13.414,17.233C365.486,447.582,377.953,442.04,376.381,430.919Z" transform="translate(-236.249 -269.581)"/>
  <g id="Group_519" data-name="Group 519" transform="translate(122.256 135.182)">
    <path id="Path_66" data-name="Path 66" class="cls-10" d="M418.663,383.314a2.734,2.734,0,0,1-2.579-3.634l2.352-6.731a2.732,2.732,0,1,1,5.158,1.8l-2.352,6.731A2.734,2.734,0,0,1,418.663,383.314Z" transform="translate(-400.79 -371.118)"/>
    <path id="Path_67" data-name="Path 67" class="cls-10" d="M380.2,385.724a2.732,2.732,0,0,1-2.463-1.546l-3.1-6.423a2.732,2.732,0,1,1,4.922-2.373l3.1,6.423a2.733,2.733,0,0,1-2.459,3.919Z" transform="translate(-374.366 -372.846)"/>
    <path id="Path_68" data-name="Path 68" class="cls-10" d="M443.367,411.714a2.732,2.732,0,0,1-1.188-5.194l6.422-3.1a2.732,2.732,0,0,1,2.373,4.922l-6.422,3.1A2.722,2.722,0,0,1,443.367,411.714Z" transform="translate(-416.494 -391.484)"/>
  </g>
</svg>
