<svg id="whatsapp-logo" xmlns="http://www.w3.org/2000/svg" viewBox="0 0 33.492 33.492">
  <defs>
    <style>
      .cls-1 {
        fill: #fff;
      }
    </style>
  </defs>
  <path id="WhatsApp" class="cls-1" d="M33.492,16.315A16.469,16.469,0,0,1,9.1,30.6L0,33.492l2.968-8.753A16.143,16.143,0,0,1,.608,16.315a16.442,16.442,0,0,1,32.883,0ZM17.05,2.6A13.785,13.785,0,0,0,3.227,16.315,13.572,13.572,0,0,0,5.86,24.356L4.133,29.451l5.312-1.688A13.837,13.837,0,0,0,30.874,16.315,13.787,13.787,0,0,0,17.05,2.6Zm8.3,17.474c-.1-.166-.37-.267-.773-.467s-2.385-1.168-2.754-1.3-.639-.2-.907.2-1.041,1.3-1.276,1.567-.47.3-.873.1a11.031,11.031,0,0,1-3.241-1.985,12.056,12.056,0,0,1-2.242-2.769c-.235-.4-.025-.616.177-.815.182-.179.4-.467.6-.7a2.68,2.68,0,0,0,.4-.667.729.729,0,0,0-.033-.7c-.1-.2-.907-2.168-1.243-2.968s-.671-.667-.907-.667-.5-.033-.773-.033a1.487,1.487,0,0,0-1.075.5A4.472,4.472,0,0,0,9.031,12.7a7.738,7.738,0,0,0,1.646,4.136c.2.266,2.787,4.436,6.884,6.037s4.1,1.067,4.837,1a4.076,4.076,0,0,0,2.721-1.9A3.334,3.334,0,0,0,25.353,20.072Z"/>
</svg>
