<svg id="phone-receiver" xmlns="http://www.w3.org/2000/svg" viewBox="0 0 33.615 33.593">
  <defs>
    <style>
      .cls-1 {
        fill: #fff;
      }
    </style>
  </defs>
  <g id="Group_549" data-name="Group 549" transform="translate(0 0)">
    <path id="Path_125" data-name="Path 125" class="cls-1" d="M33.6,26.7a1.625,1.625,0,0,1-.5,1.423l-4.733,4.7a2.664,2.664,0,0,1-.836.6,3.455,3.455,0,0,1-1.014.32q-.036,0-.214.018t-.462.018a16.4,16.4,0,0,1-2.189-.231,16.621,16.621,0,0,1-3.7-1.139,31.065,31.065,0,0,1-4.964-2.722A37.012,37.012,0,0,1,9.08,24.706a38.995,38.995,0,0,1-4.128-4.7,33.468,33.468,0,0,1-2.633-4.146A22.328,22.328,0,0,1,.824,12.412,18.313,18.313,0,0,1,.148,9.743,8.814,8.814,0,0,1,.006,7.981q.036-.641.036-.712a3.459,3.459,0,0,1,.32-1.014,2.667,2.667,0,0,1,.6-.836L5.7.686a1.567,1.567,0,0,1,1.139-.5,1.328,1.328,0,0,1,.818.267,2.474,2.474,0,0,1,.6.658l3.808,7.224a1.732,1.732,0,0,1,.178,1.245,2.218,2.218,0,0,1-.6,1.139L9.9,12.465a.594.594,0,0,0-.125.231.878.878,0,0,0-.053.267,6.425,6.425,0,0,0,.641,1.708,15.68,15.68,0,0,0,1.317,2.082A23.114,23.114,0,0,0,14.2,19.582a23.571,23.571,0,0,0,2.847,2.544,16.44,16.44,0,0,0,2.082,1.334,5.533,5.533,0,0,0,1.281.516l.445.089a.848.848,0,0,0,.231-.053.594.594,0,0,0,.231-.125l2.028-2.064a2.18,2.18,0,0,1,1.495-.569,1.859,1.859,0,0,1,.961.214h.036l6.868,4.057A1.79,1.79,0,0,1,33.6,26.7Z" transform="translate(0 -0.188)"/>
  </g>
</svg>
