<svg id="friends" xmlns="http://www.w3.org/2000/svg" viewBox="0 0 173.156 186.499">
  <defs>
    <style>
      .cls-1 {
        fill: #344968;
      }

      .cls-2 {
        fill: #8ba7bc;
      }

      .cls-3 {
        fill: #f9dc6a;
      }

      .cls-4 {
        fill: #e5ac51;
      }

      .cls-5 {
        fill: #fca;
      }

      .cls-6 {
        fill: #f2a077;
      }

      .cls-7 {
        fill: #475d6d;
      }

      .cls-8 {
        fill: #2bb4f3;
      }

      .cls-9 {
        fill: #75dc5e;
      }

      .cls-10 {
        fill: #ff5a59;
      }
    </style>
  </defs>
  <g id="Group_520" data-name="Group 520" transform="translate(21.799 37.855)">
    <path id="Path_69" data-name="Path 69" class="cls-1" d="M99.036,212.722a2.683,2.683,0,0,1-1.9-.788,64.791,64.791,0,0,1-6.1-84.569,65.321,65.321,0,0,1,32.647-23.1,2.693,2.693,0,0,1,1.6,5.143A59.894,59.894,0,0,0,95.342,130.59a59.405,59.405,0,0,0,5.6,77.535,2.692,2.692,0,0,1-1.9,4.6Z" transform="translate(-78.159 -104.061)"/>
    <path id="Path_70" data-name="Path 70" class="cls-1" d="M207.246,396.406a64.3,64.3,0,0,1-26.336-5.578,2.692,2.692,0,1,1,2.191-4.919,59.55,59.55,0,0,0,50.976-1.279,59.962,59.962,0,0,0,20.488-17.1c.479-.631.95-1.277,1.4-1.918a2.693,2.693,0,0,1,4.414,3.084c-.489.7-1,1.4-1.525,2.092a65.362,65.362,0,0,1-22.34,18.644A64.1,64.1,0,0,1,207.246,396.406Z" transform="translate(-142.466 -269.56)"/>
    <path id="Path_71" data-name="Path 71" class="cls-1" d="M344.985,163.765a2.692,2.692,0,0,1-2.682-2.482,59.426,59.426,0,0,0-41.544-52.015l-.262-.083a2.693,2.693,0,0,1,1.637-5.131l.234.074a64.813,64.813,0,0,1,45.306,56.735,2.694,2.694,0,0,1-2.474,2.895C345.126,163.762,345.055,163.765,344.985,163.765Z" transform="translate(-218.317 -103.925)"/>
  </g>
  <g id="Group_521" data-name="Group 521" transform="translate(0 15.472)">
    <path id="Path_72" data-name="Path 72" class="cls-2" d="M386.648,141.067c-.062,0-.124,0-.187-.007a2.692,2.692,0,0,1-2.5-2.87c.127-1.857.191-3.746.191-5.613a81.226,81.226,0,0,0-52.546-76,2.692,2.692,0,1,1,1.9-5.038,86.611,86.611,0,0,1,56.031,81.035c0,1.989-.068,4-.2,5.98A2.692,2.692,0,0,1,386.648,141.067Z" transform="translate(-216.378 -48.13)"/>
    <path id="Path_73" data-name="Path 73" class="cls-2" d="M173.063,385.676a86.32,86.32,0,0,1-46.268-13.387,2.693,2.693,0,1,1,2.882-4.549A81.225,81.225,0,0,0,252.61,315.451a2.692,2.692,0,1,1,5.276,1.078,86.608,86.608,0,0,1-84.823,69.146Z" transform="translate(-86.484 -214.649)"/>
    <path id="Path_74" data-name="Path 74" class="cls-2" d="M27.407,161.808a2.693,2.693,0,0,1-2.487-1.659,86.632,86.632,0,0,1,60.5-117.6,2.693,2.693,0,0,1,1.206,5.248A81.226,81.226,0,0,0,23.7,126.924a80.711,80.711,0,0,0,6.192,31.156,2.694,2.694,0,0,1-2.485,3.727Z" transform="translate(-18.315 -42.475)"/>
  </g>
  <path id="Path_75" data-name="Path 75" class="cls-3" d="M164.712,180.9v29.9h66.5V178.286a11.912,11.912,0,0,0-11.912-11.912h-4.836l-.366-.754a11.782,11.782,0,0,0-10.6-6.636H186.631A21.918,21.918,0,0,0,164.712,180.9Z" transform="translate(-111.386 -101.074)"/>
  <path id="Path_76" data-name="Path 76" class="cls-4" d="M274.753,166.373h-4.836l-.366-.754a11.781,11.781,0,0,0-10.6-6.635H251.93a11.782,11.782,0,0,1,10.6,6.635l.366.754h4.836a11.912,11.912,0,0,1,11.912,11.912V210.8h7.022V178.285A11.911,11.911,0,0,0,274.753,166.373Z" transform="translate(-166.834 -101.073)"/>
  <path id="Path_77" data-name="Path 77" class="cls-5" d="M227.884,237.132v2.85a6.025,6.025,0,0,1-6.025,6.025h-5.934a25.8,25.8,0,0,1-51.527,0h-5.934a6.025,6.025,0,0,1-6.025-6.025v-2.85a6.025,6.025,0,0,1,6.025-6.025h5.9V220.336h21.659a20.912,20.912,0,0,0,20.592-17.258,1.088,1.088,0,0,1,1.806-.623,22.845,22.845,0,0,1,7.543,16.992v11.661h5.9A6.023,6.023,0,0,1,227.884,237.132Z" transform="translate(-103.584 -128.528)"/>
  <path id="Path_78" data-name="Path 78" class="cls-6" d="M283.341,231.105h-5.9V219.444a22.846,22.846,0,0,0-7.543-16.992,1.088,1.088,0,0,0-1.806.623,20.759,20.759,0,0,1-1.382,4.614,25.285,25.285,0,0,1,2.843,11.755V231.1l-.032,14.9a27.431,27.431,0,0,1-6.982,17.337,21.4,21.4,0,0,1-13.394,6.993q1.233.119,2.5.121a25.793,25.793,0,0,0,25.763-24.45h5.934a6.025,6.025,0,0,0,6.025-6.025v-2.85A6.026,6.026,0,0,0,283.341,231.105Z" transform="translate(-165.064 -128.526)"/>
  <g id="Group_522" data-name="Group 522" transform="translate(70.97 100.31)">
    <path id="Path_79" data-name="Path 79" class="cls-7" d="M234.4,329.1a13.137,13.137,0,0,1-12.179-8.2,2.692,2.692,0,0,1,4.993-2.016,7.76,7.76,0,0,0,14.373,0,2.693,2.693,0,0,1,4.99,2.025A13.086,13.086,0,0,1,234.4,329.1Z" transform="translate(-218.792 -301.967)"/>
    <path id="Path_80" data-name="Path 80" class="cls-7" d="M215.843,282.015a2.693,2.693,0,0,1-2.693-2.693v-1.247a2.693,2.693,0,1,1,5.385,0v1.247A2.693,2.693,0,0,1,215.843,282.015Z" transform="translate(-213.15 -275.383)"/>
    <path id="Path_81" data-name="Path 81" class="cls-7" d="M286.759,282.015a2.692,2.692,0,0,1-2.693-2.693v-1.247a2.693,2.693,0,0,1,5.385,0v1.247A2.692,2.692,0,0,1,286.759,282.015Z" transform="translate(-258.234 -275.383)"/>
  </g>
  <path id="Path_82" data-name="Path 82" class="cls-8" d="M63.8,368.659a21.018,21.018,0,0,0-21.018,21.018c0,16.814,21.018,27.969,21.018,27.969s21.018-11.155,21.018-27.969A21.018,21.018,0,0,0,63.8,368.659Zm0,30.071a9.054,9.054,0,1,1,9.054-9.054A9.054,9.054,0,0,1,63.8,398.73Z" transform="translate(-33.867 -234.373)"/>
  <path id="Path_83" data-name="Path 83" class="cls-9" d="M393.692,260.094a14.18,14.18,0,0,0-14.18,14.18c0,11.344,14.18,18.87,14.18,18.87s14.18-7.526,14.18-18.87A14.18,14.18,0,0,0,393.692,260.094Zm0,20.289a6.108,6.108,0,1,1,6.108-6.108A6.108,6.108,0,0,1,393.692,280.383Z" transform="translate(-247.944 -165.353)"/>
  <path id="Path_84" data-name="Path 84" class="cls-10" d="M223.3,0a18.736,18.736,0,0,0-18.736,18.736c0,14.988,18.736,24.933,18.736,24.933s18.736-9.944,18.736-24.933A18.736,18.736,0,0,0,223.3,0Zm0,26.806a8.071,8.071,0,1,1,8.07-8.07A8.07,8.07,0,0,1,223.3,26.806Z" transform="translate(-136.722)"/>
</svg>
