<svg xmlns="http://www.w3.org/2000/svg" viewBox="0 0 88.079 38.431">
  <defs>
    <style>
      .cls-1 {
        fill: #fff;
      }
    </style>
  </defs>
  <path id="logo-white" class="cls-1" d="M203.259,371.347a3.316,3.316,0,0,1-2.482.919l-12.047-.013,15.589-14.837.711-5.644H176.982c-2.489-2.509-5.723-3.734-9.863-3.734a17.206,17.206,0,0,0-11.714,4.393,16.8,16.8,0,0,0-5.759,10.844,13.618,13.618,0,0,0,1.033,7.773,2.669,2.669,0,0,1-.54,1.221,3.148,3.148,0,0,1-2.385.9,2.115,2.115,0,0,1-1.8-.773,3.169,3.169,0,0,1-.432-2.271l2.438-19.815h.05l.864-6.738h-.05l.252-2.2h-6.195a26.383,26.383,0,0,0-4.934-.5,15.864,15.864,0,0,0-9.9,3.095,11.57,11.57,0,0,0-4.672,8.084l-.254,1.314h-3.772l-1.154,5.923h4.265L120.018,378.8h7.364l2.436-19.515h5.006l.661-5.923h-5.005l.2-.864a5.827,5.827,0,0,1,2.362-4.143,8.252,8.252,0,0,1,5.106-1.547,11.38,11.38,0,0,1,2.849.349l-2.893,22.91q-.508,4.289,1.7,6.762t7.238,2.469a9.375,9.375,0,0,0,5.992-1.846,6.866,6.866,0,0,0,1.566-1.676,13.844,13.844,0,0,0,8.471,2.482,17.624,17.624,0,0,0,17.476-15.245,15.511,15.511,0,0,0-.132-4.851H194.2L178.611,372.9l-.711,5.752,22.15.011a9.778,9.778,0,0,0,6.218-1.92Zm-30.766-8.2a9.7,9.7,0,0,1-2.814,5.839,7.729,7.729,0,0,1-5.656,2.361,6.411,6.411,0,0,1-3.73-1.087,5.863,5.863,0,0,1-2.245-2.952,8.716,8.716,0,0,1-.347-4.161,9.878,9.878,0,0,1,2.781-5.9,7.638,7.638,0,0,1,5.628-2.361,5.927,5.927,0,0,1,5.026,2.394,7.749,7.749,0,0,1,1.358,5.87" transform="translate(-118.189 -340.873)"/>
</svg>
